<svg width="759" height="405" viewBox="0 0 759 405" fill="none" xmlns="http://www.w3.org/2000/svg">
<path d="M756 3C685 9 599.072 83.1567 541.429 115.64C432.321 177.127 312.803 228.024 187.299 241.732C166.691 243.983 122.587 244.951 127.634 211.584C129.985 196.045 140.862 182.857 152.41 172.966C182.922 146.834 221.007 126.597 258.403 112.354C278.115 104.846 299.315 98.5479 320.595 98.4489C335.827 98.3781 354.202 100.447 366.102 111.09C396.022 137.847 387.158 195.479 370.4 226.057C326.3 306.526 238.711 357.8 152.474 380.59C119.458 389.315 86.6043 392.031 52.6748 393.926C22.9212 395.589 -6.43988 398.326 -36 401.827" stroke="#FEAAD8" stroke-width="5" stroke-linecap="round"/>
</svg>
